<?xml version="1.0" encoding="iso-8859-1"?>
<!-- Uploaded to: SVG Repo, www.svgrepo.com, Generator: SVG Repo Mixer Tools -->
<svg height="800px" width="800px" version="1.1" id="Layer_1" xmlns="http://www.w3.org/2000/svg" xmlns:xlink="http://www.w3.org/1999/xlink" 
	 viewBox="0 0 512 512" xml:space="preserve">
<path style="fill:#EFF2FA;" d="M396.769,504H115.231c-15.249,0-27.61-12.361-27.61-27.61V35.61C87.621,20.362,99.982,8,115.231,8
	h281.538c15.249,0,27.61,12.362,27.61,27.61v440.78C424.379,491.639,412.018,504,396.769,504z"/>
<path style="fill:#515262;" d="M259.453,233.977c-2.134-1.302-4.772-1.302-6.906,0c-16.343,9.97-85.133,55.006-85.133,106.71
	c0,26.873,21.75,48.656,48.579,48.656c8.782,0,17.012-2.339,24.115-6.426c2.037-1.171,4.418,0.9,3.619,3.126
	c-3.79,10.557-9.155,20.349-15.819,29.082c-2.545,3.334-0.101,8.172,4.067,8.172h48.562c4.17,0,6.608-4.838,4.063-8.175
	c-6.587-8.634-11.905-18.303-15.687-28.723c-0.804-2.213,1.544-4.288,3.588-3.149c6.962,3.878,14.971,6.094,23.505,6.094
	c26.83,0,48.579-21.784,48.579-48.656C344.586,288.983,275.796,243.946,259.453,233.977z"/>
<polygon style="fill:#FF6464;" points="400,192 112,192 136,160 112,128 400,128 376,160 "/>
<g>
	<path style="fill:#2D2B29;" d="M408,0H104C90.766,0,80,10.767,80,24v464c0,13.234,10.766,24,24,24h304c13.234,0,24-10.766,24-24V24
		C432,10.767,421.234,0,408,0z M416,488c0,4.411-3.589,8-8,8H104c-4.411,0-8-3.589-8-8V24c0-4.411,3.589-8,8-8h304
		c4.411,0,8,3.589,8,8V488z"/>
	<path style="fill:#2D2B29;" d="M216.124,397.936c5.109,0,10.101-0.673,14.895-1.991c-4.199,8.223-9.512,15.864-15.771,22.618
		c-2.161,2.333-2.735,5.725-1.462,8.64c1.273,2.914,4.151,4.798,7.331,4.798h70.205c3.18,0,6.058-1.884,7.331-4.798
		c1.273-2.915,0.699-6.306-1.462-8.639c-6.217-6.712-11.505-14.303-15.693-22.471c4.62,1.22,9.415,1.843,14.308,1.843
		c31.086,0,56.377-25.487,56.377-56.816c0-62.795-88.491-113.925-92.258-116.07c-2.455-1.398-5.465-1.398-7.92,0
		c-3.767,2.146-92.258,53.275-92.258,116.07C159.746,372.448,185.037,397.936,216.124,397.936z M255.967,241.346
		c16.677,10.373,80.214,52.975,80.214,99.773c0,22.506-18.113,40.816-40.377,40.816c-8.868,0-17.294-2.874-24.367-8.31
		c-2.738-2.105-6.517-2.216-9.372-0.274c-2.856,1.941-4.145,5.495-3.195,8.815c3.442,12.044,8.842,23.511,15.882,33.833h-37.065
		c7.143-10.472,12.595-22.119,16.031-34.36c0.938-3.341-0.385-6.907-3.276-8.827c-2.892-1.921-6.691-1.757-9.407,0.404
		c-7.168,5.704-15.783,8.718-24.911,8.718c-22.264,0-40.377-18.311-40.377-40.816C175.746,294.397,239.295,251.732,255.967,241.346z
		"/>
	<path style="fill:#2D2B29;" d="M120.02,48c4.418,0,8-3.582,8-8s-3.582-8-8-8h-0.01c-4.418,0-7.995,3.582-7.995,8
		C112.015,44.418,115.602,48,120.02,48z"/>
	<path style="fill:#2D2B29;" d="M392.02,48c4.418,0,8-3.582,8-8s-3.582-8-8-8h-0.01c-4.418,0-7.995,3.582-7.995,8
		C384.015,44.418,387.602,48,392.02,48z"/>
	<path style="fill:#2D2B29;" d="M392.02,464h-0.01c-4.418,0-7.995,3.582-7.995,8s3.586,8,8.005,8s8-3.582,8-8
		S396.438,464,392.02,464z"/>
	<path style="fill:#2D2B29;" d="M120.02,464h-0.01c-4.418,0-7.995,3.582-7.995,8s3.586,8,8.005,8s8-3.582,8-8
		C128.02,467.582,124.438,464,120.02,464z"/>
	<path style="fill:#2D2B29;" d="M200,64h-16c-4.418,0-8,3.582-8,8s3.582,8,8,8h16c4.418,0,8-3.582,8-8S204.418,64,200,64z"/>
	<path style="fill:#2D2B29;" d="M328,64h-96c-4.418,0-8,3.582-8,8s3.582,8,8,8h96c4.418,0,8-3.582,8-8S332.418,64,328,64z"/>
	<path style="fill:#2D2B29;" d="M407.155,124.423C405.8,121.712,403.03,120,400,120V80c0-4.418-3.582-8-8-8
		c-17.645,0-32-14.355-32-32c0-4.418-3.582-8-8-8H160c-4.418,0-8,3.582-8,8c0,17.645-14.355,32-32,32c-4.418,0-8,3.582-8,8v40
		c-3.03,0-5.8,1.712-7.155,4.423c-1.355,2.71-1.063,5.953,0.755,8.377L126,160l-20.4,27.2c-1.818,2.424-2.111,5.667-0.755,8.377
		C106.2,198.288,108.97,200,112,200v232c0,4.418,3.582,8,8,8c17.645,0,32,14.354,32,32c0,4.418,3.582,8,8,8h192c4.418,0,8-3.582,8-8
		c0-17.646,14.355-32,32-32c4.418,0,8-3.582,8-8V200c3.03,0,5.8-1.712,7.155-4.422c1.355-2.71,1.063-5.953-0.755-8.377L386,160
		l20.4-27.2C408.218,130.376,408.511,127.133,407.155,124.423z M128,87.333C148.07,83.952,163.952,68.07,167.333,48h177.333
		C348.048,68.07,363.93,83.952,384,87.333V120H128V87.333z M142.4,155.2L128,136h256l-14.4,19.2c-2.133,2.844-2.133,6.756,0,9.6
		L384,184H128l14.4-19.2C144.533,161.956,144.533,158.044,142.4,155.2z M384,424.667c-20.07,3.381-35.952,19.263-39.333,39.333
		H167.333c-3.381-20.07-19.263-35.952-39.333-39.333V200h256V424.667z"/>
	<path style="fill:#2D2B29;" d="M328,168h16c4.418,0,8-3.582,8-8s-3.582-8-8-8h-16c-4.418,0-8,3.582-8,8S323.582,168,328,168z"/>
	<path style="fill:#2D2B29;" d="M168,168h128c4.418,0,8-3.582,8-8s-3.582-8-8-8H168c-4.418,0-8,3.582-8,8S163.582,168,168,168z"/>
</g>
</svg>